<?xml version="1.0" encoding="UTF-8" standalone="no"?>
<!-- Created with Inkscape (http://www.inkscape.org/) -->

<svg
   xmlns:dc="http://purl.org/dc/elements/1.1/"
   xmlns:cc="http://creativecommons.org/ns#"
   xmlns:rdf="http://www.w3.org/1999/02/22-rdf-syntax-ns#"
   xmlns:svg="http://www.w3.org/2000/svg"
   xmlns="http://www.w3.org/2000/svg"
   xmlns:sodipodi="http://sodipodi.sourceforge.net/DTD/sodipodi-0.dtd"
   xmlns:inkscape="http://www.inkscape.org/namespaces/inkscape"
   width="21.679296mm"
   height="15.440321mm"
   viewBox="0 0 21.679296 15.440321"
   version="1.1"
   id="svg8"
   sodipodi:docname="logo.svg"
   inkscape:version="0.92.1 r15371">
  <defs
     id="defs2" />
  <sodipodi:namedview
     id="base"
     pagecolor="#ffffff"
     bordercolor="#666666"
     borderopacity="1.0"
     inkscape:pageopacity="0.0"
     inkscape:pageshadow="2"
     inkscape:zoom="1.4"
     inkscape:cx="1.7758411"
     inkscape:cy="6.723879"
     inkscape:document-units="mm"
     inkscape:current-layer="layer1"
     showgrid="false"
     inkscape:window-width="1920"
     inkscape:window-height="1017"
     inkscape:window-x="-8"
     inkscape:window-y="-8"
     inkscape:window-maximized="1"
     fit-margin-top="0"
     fit-margin-left="0"
     fit-margin-right="0"
     fit-margin-bottom="0" />
  <metadata
     id="metadata5">
    <rdf:RDF>
      <cc:Work
         rdf:about="">
        <dc:format>image/svg+xml</dc:format>
        <dc:type
           rdf:resource="http://purl.org/dc/dcmitype/StillImage" />
        <dc:title></dc:title>
      </cc:Work>
    </rdf:RDF>
  </metadata>
  <g
     inkscape:label="Layer 1"
     inkscape:groupmode="layer"
     id="layer1"
     transform="translate(-92.380404,-44.946581)">
    <g
       aria-label="FME"
       style="font-style:normal;font-variant:normal;font-weight:normal;font-stretch:normal;font-size:10.58333302px;line-height:1.25;font-family:FontAwesome;-inkscape-font-specification:FontAwesome;letter-spacing:0px;word-spacing:0px;fill:#000000;fill-opacity:1;stroke:none;stroke-width:0.26458332"
       id="text4489"
       transform="matrix(0.91282554,0,0,0.90208074,9.1871406,5.1570883)">
      <path
         d="m 92.380404,52.978569 h 5.11175 l -0.01058,1.23825 h -3.683 v 2.00025 h 3.354917 v 1.23825 h -3.354917 v 2.931583 h -1.418167 z"
         style="font-style:normal;font-variant:normal;font-weight:normal;font-stretch:normal;font-family:Montserrat;-inkscape-font-specification:Montserrat;fill:#f0eee9;fill-opacity:1;stroke-width:0.26458332"
         id="path4514"
         inkscape:connector-curvature="0" />
      <path
         d="m 98.560905,52.978569 h 1.619255 l 2.45533,4.773083 2.43417,-4.773083 h 1.61925 v 7.408333 h -1.30175 v -5.312833 l -2.30717,4.550833 h -0.91017 l -2.317748,-4.550833 v 5.312833 h -1.291167 z"
         style="font-style:normal;font-variant:normal;font-weight:normal;font-stretch:normal;font-family:Montserrat;-inkscape-font-specification:Montserrat;fill:#f0eee9;fill-opacity:1;stroke-width:0.26458332"
         id="path4516"
         inkscape:connector-curvature="0" />
      <path
         d="m 108.50345,52.978569 h 5.42925 v 1.23825 h -4.01108 v 1.830916 h 3.59833 v 1.23825 h -3.59833 v 1.862667 h 4.13808 v 1.23825 h -5.55625 z"
         style="font-style:normal;font-variant:normal;font-weight:normal;font-stretch:normal;font-family:Montserrat;-inkscape-font-specification:Montserrat;fill:#f0eee9;fill-opacity:1;stroke-width:0.26458332"
         id="path4518"
         inkscape:connector-curvature="0" />
    </g>
    <g
       aria-label=""
       style="font-style:normal;font-variant:normal;font-weight:normal;font-stretch:normal;font-size:7.37070417px;line-height:1.25;font-family:FontAwesome;-inkscape-font-specification:FontAwesome;letter-spacing:0px;word-spacing:0px;fill:#f0eee9;fill-opacity:1;stroke:none;stroke-width:0.1842676"
       id="text4493"
       transform="matrix(0.91282554,0,0,0.90208074,9.1871406,5.1570883)">
      <path
         d="m 103.57652,49.236562 -4.211831,-4.211831 c -0.04936,-0.05347 -0.115168,-0.07815 -0.185091,-0.07815 -0.0329,0 -0.06992,0.0082 -0.09871,0.02056 -0.09871,0.04113 -0.164525,0.135733 -0.164525,0.242674 v 6.186127 c 0,0.106941 0.06581,0.201542 0.164525,0.242674 0.02879,0.01234 0.06581,0.02057 0.09871,0.02057 0.06992,0 0.135733,-0.02879 0.185091,-0.07815 l 1.283291,-1.283292 0.78561,1.859128 c 0.0576,0.13162 0.20976,0.19743 0.3455,0.139846 l 0.72802,-0.308484 c 0.13162,-0.05758 0.19743,-0.209768 0.13985,-0.345501 l -0.82674,-1.957844 h 1.57121 c 0.10694,0 0.20154,-0.06581 0.24267,-0.164524 0.0411,-0.0946 0.0206,-0.209769 -0.0576,-0.283805 z"
         style="fill:#f0eee9;fill-opacity:1;stroke-width:0.1842676"
         id="path4511"
         inkscape:connector-curvature="0" />
    </g>
  </g>
</svg>
