<?xml version="1.0"?><svg width="467.99999999999994" height="467.99999999999994" xmlns="http://www.w3.org/2000/svg">
 <title>sakura blossom - alice</title>

 <g>
  <title>Layer 1</title>
  <circle id="svg_2" r="218.09375" cy="246.000008" cx="236.999996" stroke-width="1.4644" stroke="#ffffff" fill="#ffaaaa"/>
  <g transform="rotate(-15.3961, 131.75, 118.195)" id="svg_4">
   <path fill="#ffaaaa" stroke="#ffffff" stroke-width="1.928799" id="path572" d="m146.379593,100.711227c3.660172,-10.47348 -4.845978,-24.169579 -7.320343,-24.438141c-3.660141,3.491165 -3.660141,3.491165 -7.320282,6.98233c-3.660172,-3.491165 -3.660172,-3.491165 -7.320343,-6.98233c-2.003296,1.404503 -10.980484,13.964661 -7.320313,25.129395c-9.312012,-5.865524 -25.59687,-3.463043 -26.62925,-1.301468c2.349976,4.399139 2.349976,4.399139 4.699921,8.798248c-4.612061,2.24147 -4.612061,2.24147 -9.224129,4.482956c0.781364,2.251282 10.794983,13.931702 22.369057,15.24437c-9.415298,7.817612 -11.23777,21.621735 -9.401489,23.226196c5.112518,-0.772369 5.112518,-0.772369 10.225014,-1.544724c0.809761,4.87648 0.809761,4.87648 1.619507,9.75293c2.486229,-0.013123 16.881195,-7.497955 20.981995,-16.073288c4.100815,12.475235 18.814758,17.104446 20.98201,15.934464c0.809738,-4.876465 0.809738,-4.876465 1.619537,-9.752884c5.112457,0.772324 5.112457,0.772324 10.157837,1.408585c0.688065,-2.395569 0.510071,-17.028931 -7.441177,-25.098312c13.038193,-1.564453 20.972794,-11.009033 20.475937,-13.336594c-4.612061,-2.241486 -4.612061,-2.241486 -9.224152,-4.482941c2.349976,-4.399155 2.349976,-4.399155 4.699951,-8.798279c-2.019485,-1.383286 -17.317322,-5.645569 -26.629288,0.911209"/>
   <path fill="#ffffff" stroke="#ffaaaa" stroke-width="1.4644" id="path566" d="m143.94133,103.623535c3.05014,-8.727905 -4.038345,-20.141296 -6.100266,-20.365097c-3.05014,2.909286 -3.05014,2.909286 -6.10025,5.818588c-3.050171,-2.909302 -3.050171,-2.909302 -6.100281,-5.818588c-1.669434,1.17041 -9.150406,11.637192 -6.100296,20.941147c-7.759987,-4.887939 -21.330696,-2.885849 -22.191017,-1.084549c1.958336,3.665939 1.958336,3.665939 3.916611,7.331863c-3.843376,1.867905 -3.843376,1.867905 -7.686783,3.735794c0.651146,1.876083 8.995811,11.609772 18.6409,12.703659c-7.846115,6.514648 -9.36483,18.018066 -7.834579,19.355164c4.260429,-0.643646 4.260429,-0.643646 8.520821,-1.287292c0.67482,4.063766 0.67482,4.063766 1.349609,8.127472c2.071838,-0.010941 14.067642,-6.248322 17.485016,-13.394424c3.417313,10.396027 15.678909,14.253708 17.48497,13.278732c0.674805,-4.063705 0.674805,-4.063705 1.349594,-8.127426c4.260422,0.643616 4.260422,0.643616 8.464905,1.173813c0.573349,-1.996292 0.425079,-14.19075 -6.200943,-20.915237c10.865097,-1.303726 17.47728,-9.174194 17.063232,-11.113815c-3.843399,-1.86792 -3.843399,-1.86792 -7.686783,-3.735809c1.958313,-3.665955 1.958313,-3.665955 3.916611,-7.331879c-1.682892,-1.152771 -14.431076,-4.704636 -22.191071,0.759323"/>
   <path fill="#ffaaaa" fill-rule="evenodd" id="path569" d="m152.466492,124.027008l-19.772064,-3.564423l-1.045242,18.624908l-0.991272,-18.565933l-18.239677,5.832901l17.549004,-7.585236l-10.532333,-15.689209l12.142044,14.547241l12.420807,-14.547241l-10.735306,15.593826l19.204041,5.353165z"/>
   <path fill="#ffaaaa" fill-rule="evenodd" id="path570" d="m118.304993,116.016968l12.780228,2.303955l0.675613,-12.038727l0.640762,12.000626l11.789688,-3.770264l-11.343277,4.902939l6.807846,10.141129l-7.848297,-9.40303l-8.028534,9.40303l6.939056,-10.079483l-12.413086,-3.460175z"/>
   <path fill="#ffaaaa" fill-rule="evenodd" stroke="#ffffff" id="path567" d="m137.85022,118.185074a6.100269,5.818608 0 1 1 -12.200546,0a6.100269,5.818608 0 1 1 12.200546,0z"/>
   <path fill="#ffaaaa" fill-rule="evenodd" stroke-width="1.0000000pt" id="path571" d="m122.261292,116.491913a1.860583,1.774674 0 1 1 -3.721176,0a1.860583,1.774674 0 1 1 3.721176,0z"/>
   <path fill="#ffaaaa" fill-rule="evenodd" stroke-width="1.0000000pt" id="path573" d="m133.38887,106.392776a1.860583,1.774674 0 1 1 -3.721161,0a1.860583,1.774674 0 1 1 3.721161,0z"/>
   <path fill="#ffaaaa" fill-rule="evenodd" stroke-width="1.0000000pt" id="path575" d="m145.78476,114.275024a1.860583,1.774674 0 1 1 -3.721146,0a1.860583,1.774674 0 1 1 3.721146,0z"/>
   <path fill="#ffaaaa" fill-rule="evenodd" stroke-width="1.0000000pt" id="path576" d="m126.932877,127.576385a1.860583,1.774674 0 1 1 -3.721161,0a1.860583,1.774674 0 1 1 3.721161,0z"/>
   <path fill="#ffaaaa" fill-rule="evenodd" stroke-width="1.0000000pt" id="path577" d="m141.394409,128.561646a1.860583,1.774674 0 1 1 -3.721191,0a1.860583,1.774674 0 1 1 3.721191,0z"/>
  </g>
  <g transform="rotate(-5.28124, 79.4999, 194.5)" id="svg_5">
   <path id="svg_6" fill="#ffaaaa" stroke="#ffffff" stroke-width="1.928799" d="m94.129593,177.015915c3.660172,-10.47348 -4.845978,-24.169571 -7.320343,-24.438141c-3.660141,3.491165 -3.660141,3.491165 -7.320282,6.98233c-3.660172,-3.491165 -3.660172,-3.491165 -7.320343,-6.98233c-2.003296,1.404495 -10.980484,13.964661 -7.320313,25.129395c-9.312012,-5.865524 -25.596878,-3.463043 -26.629257,-1.301468c2.349976,4.399139 2.349976,4.399139 4.699921,8.798248c-4.612061,2.24147 -4.612061,2.24147 -9.224121,4.482956c0.781372,2.251282 10.794983,13.931702 22.369049,15.24437c-9.415283,7.817612 -11.237762,21.621735 -9.401489,23.226196c5.112518,-0.772369 5.112518,-0.772369 10.225021,-1.544739c0.809769,4.876495 0.809769,4.876495 1.619507,9.75293c2.486221,-0.013123 16.881195,-7.497925 20.981995,-16.073273c4.100815,12.47525 18.814758,17.104462 20.98201,15.934479c0.809738,-4.876465 0.809738,-4.876465 1.619537,-9.752899c5.112457,0.772308 5.112457,0.772308 10.157837,1.4086c0.68808,-2.395569 0.510071,-17.028946 -7.441177,-25.098328c13.038193,-1.564453 20.972794,-11.009033 20.475937,-13.336594c-4.612061,-2.241486 -4.612061,-2.241486 -9.224152,-4.482941c2.349976,-4.399155 2.349976,-4.399155 4.699951,-8.798279c-2.019501,-1.383286 -17.317322,-5.645569 -26.629288,0.911209"/>
   <path id="svg_7" fill="#ffffff" stroke="#ffaaaa" stroke-width="1.4644" d="m91.69133,179.928223c3.05014,-8.727905 -4.038345,-20.141296 -6.100266,-20.365097c-3.05014,2.909286 -3.05014,2.909286 -6.10025,5.818588c-3.050171,-2.909302 -3.050171,-2.909302 -6.100281,-5.818588c-1.669434,1.17041 -9.150406,11.637192 -6.100296,20.941147c-7.759995,-4.887939 -21.330704,-2.885849 -22.191025,-1.084549c1.958344,3.665939 1.958344,3.665939 3.916626,7.331863c-3.843384,1.867905 -3.843384,1.867905 -7.686798,3.735794c0.651154,1.876083 8.995819,11.609772 18.6409,12.703659c-7.8461,6.514648 -9.364822,18.018066 -7.834564,19.355164c4.260422,-0.643646 4.260422,-0.643646 8.520813,-1.287292c0.67482,4.063782 0.67482,4.063782 1.349609,8.127472c2.071838,-0.010956 14.067642,-6.248322 17.485016,-13.394424c3.417313,10.396042 15.678909,14.253708 17.48497,13.278732c0.674805,-4.063721 0.674805,-4.063721 1.349594,-8.127441c4.260422,0.643616 4.260422,0.643616 8.464905,1.173828c0.573364,-1.996277 0.425079,-14.19075 -6.200943,-20.915237c10.865097,-1.303726 17.47728,-9.174194 17.063248,-11.113815c-3.843414,-1.86792 -3.843414,-1.86792 -7.686798,-3.735809c1.958313,-3.665955 1.958313,-3.665955 3.916595,-7.331879c-1.682861,-1.152771 -14.431061,-4.704636 -22.191055,0.759323"/>
   <path id="svg_8" fill="#ffaaaa" fill-rule="evenodd" d="m100.216492,200.331696l-19.772064,-3.564423l-1.045242,18.624908l-0.991272,-18.565933l-18.23967,5.832901l17.548996,-7.585236l-10.532333,-15.689209l12.142044,14.547241l12.420807,-14.547241l-10.735306,15.593826l19.204041,5.353165z"/>
   <path id="svg_9" fill="#ffaaaa" fill-rule="evenodd" d="m66.054993,192.321655l12.780228,2.303955l0.675613,-12.038727l0.640762,12.000626l11.789688,-3.770264l-11.343277,4.902939l6.807846,10.141129l-7.848297,-9.40303l-8.028534,9.40303l6.939056,-10.079483l-12.413086,-3.460175z"/>
   <path id="svg_10" fill="#ffaaaa" fill-rule="evenodd" stroke="#ffffff" d="m85.60022,194.489761a6.100269,5.818608 0 1 1 -12.200546,0a6.100269,5.818608 0 1 1 12.200546,0z"/>
   <path id="svg_11" fill="#ffaaaa" fill-rule="evenodd" stroke-width="1.0000000pt" d="m70.011292,192.7966a1.860583,1.774674 0 1 1 -3.721176,0a1.860583,1.774674 0 1 1 3.721176,0z"/>
   <path id="svg_12" fill="#ffaaaa" fill-rule="evenodd" stroke-width="1.0000000pt" d="m81.13887,182.697464a1.860583,1.774674 0 1 1 -3.721161,0a1.860583,1.774674 0 1 1 3.721161,0z"/>
   <path id="svg_13" fill="#ffaaaa" fill-rule="evenodd" stroke-width="1.0000000pt" d="m93.53476,190.579712a1.860583,1.774674 0 1 1 -3.721146,0a1.860583,1.774674 0 1 1 3.721146,0z"/>
   <path id="svg_14" fill="#ffaaaa" fill-rule="evenodd" stroke-width="1.0000000pt" d="m74.682877,203.881073a1.860583,1.774674 0 1 1 -3.721161,0a1.860583,1.774674 0 1 1 3.721161,0z"/>
   <path id="svg_15" fill="#ffaaaa" fill-rule="evenodd" stroke-width="1.0000000pt" d="m89.144409,204.866333a1.860583,1.774674 0 1 1 -3.721191,0a1.860583,1.774674 0 1 1 3.721191,0z"/>
  </g>
  <g transform="rotate(7.74471, 396.5, 281.5)" id="svg_16">
   <path id="svg_17" fill="#ffaaaa" stroke="#ffffff" stroke-width="1.928799" d="m411.129578,264.01593c3.660187,-10.473495 -4.845947,-24.169586 -7.320313,-24.438156c-3.660156,3.491165 -3.660156,3.491165 -7.320313,6.98233c-3.660156,-3.491165 -3.660156,-3.491165 -7.320313,-6.98233c-2.003296,1.404495 -10.980499,13.964661 -7.320313,25.129379c-9.312012,-5.865509 -25.596893,-3.463013 -26.629272,-1.301453c2.349976,4.399139 2.349976,4.399139 4.699921,8.798248c-4.612061,2.241486 -4.612061,2.241486 -9.224121,4.482941c0.781372,2.251282 10.794983,13.931702 22.369049,15.244385c-9.415283,7.817627 -11.237762,21.621735 -9.401489,23.226196c5.112518,-0.772369 5.112518,-0.772369 10.225037,-1.544739c0.809753,4.876495 0.809753,4.876495 1.619507,9.75293c2.486206,-0.013123 16.881165,-7.497925 20.981995,-16.073273c4.1008,12.47525 18.814758,17.104462 20.981995,15.934479c0.809753,-4.876465 0.809753,-4.876465 1.619537,-9.752899c5.112457,0.772308 5.112457,0.772308 10.157837,1.4086c0.68808,-2.395569 0.510071,-17.028931 -7.441193,-25.098328c13.038208,-1.564453 20.972809,-11.009033 20.475952,-13.336609c-4.612061,-2.241455 -4.612061,-2.241455 -9.224152,-4.48291c2.349976,-4.39917 2.349976,-4.39917 4.699951,-8.798279c-2.019501,-1.383301 -17.317322,-5.645569 -26.629303,0.911194"/>
   <path id="svg_18" fill="#ffffff" stroke="#ffaaaa" stroke-width="1.4644" d="m408.691345,266.928223c3.05011,-8.727905 -4.038361,-20.141296 -6.100281,-20.365097c-3.05014,2.909286 -3.05014,2.909286 -6.10025,5.818588c-3.050171,-2.909302 -3.050171,-2.909302 -6.100281,-5.818588c-1.669434,1.17041 -9.150421,11.637192 -6.100311,20.941147c-7.759979,-4.887939 -21.330688,-2.885864 -22.19101,-1.084534c1.958344,3.665924 1.958344,3.665924 3.916626,7.331848c-3.843384,1.86792 -3.843384,1.86792 -7.686798,3.735779c0.651154,1.876099 8.995819,11.609802 18.6409,12.703674c-7.8461,6.514648 -9.364838,18.018066 -7.834564,19.355164c4.260437,-0.643646 4.260437,-0.643646 8.520813,-1.287292c0.674805,4.063782 0.674805,4.063782 1.349609,8.127472c2.071838,-0.010956 14.067627,-6.248322 17.485016,-13.39444c3.417328,10.396057 15.678925,14.253723 17.484955,13.278748c0.674805,-4.063721 0.674805,-4.063721 1.349609,-8.127441c4.260437,0.643616 4.260437,0.643616 8.464905,1.173828c0.573364,-1.996277 0.425079,-14.190735 -6.200928,-20.915222c10.865082,-1.303741 17.477264,-9.174194 17.063232,-11.113831c-3.843414,-1.86792 -3.843414,-1.86792 -7.686798,-3.735809c1.958313,-3.665955 1.958313,-3.665955 3.916595,-7.331879c-1.682861,-1.152771 -14.431061,-4.704651 -22.19104,0.759338"/>
   <path id="svg_19" fill="#ffaaaa" fill-rule="evenodd" d="m417.216492,287.331696l-19.772064,-3.564423l-1.045258,18.624908l-0.991272,-18.565948l-18.239655,5.832916l17.548981,-7.585236l-10.532318,-15.689209l12.142059,14.547241l12.420776,-14.547241l-10.735291,15.593811l19.204041,5.35318z"/>
   <path id="svg_20" fill="#ffaaaa" fill-rule="evenodd" d="m383.054993,279.321655l12.780212,2.303955l0.675629,-12.038727l0.640778,12.000641l11.789673,-3.770264l-11.343262,4.902924l6.807831,10.141144l-7.848297,-9.403046l-8.028534,9.403046l6.939056,-10.079498l-12.413086,-3.460175z"/>
   <path id="svg_21" fill="#ffaaaa" fill-rule="evenodd" stroke="#ffffff" d="m402.60022,281.489746a6.100269,5.818608 0 1 1 -12.200562,0a6.100269,5.818608 0 1 1 12.200562,0z"/>
   <path id="svg_22" fill="#ffaaaa" fill-rule="evenodd" stroke-width="1.0000000pt" d="m387.011292,279.7966a1.860583,1.774674 0 1 1 -3.721191,0a1.860583,1.774674 0 1 1 3.721191,0z"/>
   <path id="svg_23" fill="#ffaaaa" fill-rule="evenodd" stroke-width="1.0000000pt" d="m398.138855,269.697449a1.860583,1.774674 0 1 1 -3.72113,0a1.860583,1.774674 0 1 1 3.72113,0z"/>
   <path id="svg_24" fill="#ffaaaa" fill-rule="evenodd" stroke-width="1.0000000pt" d="m410.53476,277.579712a1.860583,1.774674 0 1 1 -3.721161,0a1.860583,1.774674 0 1 1 3.721161,0z"/>
   <path id="svg_25" fill="#ffaaaa" fill-rule="evenodd" stroke-width="1.0000000pt" d="m391.682861,290.881073a1.860583,1.774674 0 1 1 -3.72113,0a1.860583,1.774674 0 1 1 3.72113,0z"/>
   <path id="svg_26" fill="#ffaaaa" fill-rule="evenodd" stroke-width="1.0000000pt" d="m406.144409,291.866333a1.860583,1.774674 0 1 1 -3.721191,0a1.860583,1.774674 0 1 1 3.721191,0z"/>
  </g>
  <g transform="rotate(-27.6067, 106.5, 337.5)" id="svg_27">
   <path id="svg_28" fill="#ffaaaa" stroke="#ffffff" stroke-width="1.928799" d="m121.129593,320.01593c3.660172,-10.473511 -4.845978,-24.169586 -7.320343,-24.438171c-3.660141,3.49118 -3.660141,3.49118 -7.320282,6.982361c-3.660172,-3.49118 -3.660172,-3.49118 -7.320343,-6.982361c-2.003296,1.40451 -10.980484,13.964661 -7.320313,25.129395c-9.312012,-5.865509 -25.596878,-3.463013 -26.629257,-1.301453c2.349976,4.399139 2.349976,4.399139 4.699921,8.798248c-4.612061,2.241486 -4.612061,2.241486 -9.224121,4.482941c0.781372,2.251282 10.794983,13.931702 22.369049,15.244385c-9.415283,7.817627 -11.237762,21.621735 -9.401489,23.226196c5.112518,-0.772369 5.112518,-0.772369 10.225021,-1.544739c0.809769,4.876495 0.809769,4.876495 1.619507,9.75293c2.486221,-0.013123 16.881195,-7.497925 20.981995,-16.073273c4.100815,12.47525 18.814758,17.104462 20.98201,15.934479c0.809738,-4.876465 0.809738,-4.876465 1.619537,-9.752899c5.112457,0.772308 5.112457,0.772308 10.157837,1.4086c0.68808,-2.395569 0.510071,-17.028931 -7.441177,-25.098328c13.038193,-1.564453 20.972794,-11.009033 20.475937,-13.336609c-4.612061,-2.241455 -4.612061,-2.241455 -9.224152,-4.48291c2.349976,-4.39917 2.349976,-4.39917 4.699951,-8.798279c-2.019501,-1.383301 -17.317322,-5.645569 -26.629288,0.911194"/>
   <path id="svg_29" fill="#ffffff" stroke="#ffaaaa" stroke-width="1.4644" d="m118.69133,322.928223c3.05014,-8.727905 -4.038345,-20.141296 -6.100266,-20.365112c-3.05014,2.909302 -3.05014,2.909302 -6.10025,5.818604c-3.050171,-2.909302 -3.050171,-2.909302 -6.100281,-5.818604c-1.669434,1.17041 -9.150406,11.637207 -6.100296,20.941162c-7.759995,-4.887939 -21.330704,-2.885864 -22.191025,-1.084534c1.958344,3.665924 1.958344,3.665924 3.916626,7.331848c-3.843384,1.86792 -3.843384,1.86792 -7.686798,3.735779c0.651154,1.876099 8.995819,11.609802 18.6409,12.703674c-7.8461,6.514648 -9.364822,18.018066 -7.834564,19.355164c4.260422,-0.643646 4.260422,-0.643646 8.520813,-1.287292c0.67482,4.063782 0.67482,4.063782 1.349609,8.127472c2.071838,-0.010956 14.067642,-6.248322 17.485016,-13.39444c3.417313,10.396057 15.678909,14.253723 17.48497,13.278748c0.674805,-4.063721 0.674805,-4.063721 1.349594,-8.127441c4.260422,0.643616 4.260422,0.643616 8.464905,1.173828c0.573364,-1.996277 0.425079,-14.190735 -6.200943,-20.915222c10.865097,-1.303741 17.47728,-9.174194 17.063248,-11.113831c-3.843414,-1.86792 -3.843414,-1.86792 -7.686798,-3.735809c1.958313,-3.665955 1.958313,-3.665955 3.916595,-7.331879c-1.682861,-1.152771 -14.431061,-4.704651 -22.191055,0.759338"/>
   <path id="svg_30" fill="#ffaaaa" fill-rule="evenodd" d="m127.216492,343.331696l-19.772064,-3.564423l-1.045242,18.624908l-0.991272,-18.565948l-18.23967,5.832916l17.548996,-7.585236l-10.532333,-15.689209l12.142044,14.547241l12.420807,-14.547241l-10.735306,15.593811l19.204041,5.35318z"/>
   <path id="svg_31" fill="#ffaaaa" fill-rule="evenodd" d="m93.054993,335.321655l12.780228,2.303955l0.675613,-12.038727l0.640762,12.000641l11.789688,-3.770264l-11.343277,4.902924l6.807846,10.141144l-7.848297,-9.403046l-8.028534,9.403046l6.939056,-10.079498l-12.413086,-3.460175z"/>
   <path id="svg_32" fill="#ffaaaa" fill-rule="evenodd" stroke="#ffffff" d="m112.60022,337.489746a6.100269,5.818608 0 1 1 -12.200546,0a6.100269,5.818608 0 1 1 12.200546,0z"/>
   <path id="svg_33" fill="#ffaaaa" fill-rule="evenodd" stroke-width="1.0000000pt" d="m97.011292,335.7966a1.860583,1.774674 0 1 1 -3.721176,0a1.860583,1.774674 0 1 1 3.721176,0z"/>
   <path id="svg_34" fill="#ffaaaa" fill-rule="evenodd" stroke-width="1.0000000pt" d="m108.13887,325.697449a1.860583,1.774674 0 1 1 -3.721161,0a1.860583,1.774674 0 1 1 3.721161,0z"/>
   <path id="svg_35" fill="#ffaaaa" fill-rule="evenodd" stroke-width="1.0000000pt" d="m120.53476,333.579712a1.860583,1.774674 0 1 1 -3.721146,0a1.860583,1.774674 0 1 1 3.721146,0z"/>
   <path id="svg_36" fill="#ffaaaa" fill-rule="evenodd" stroke-width="1.0000000pt" d="m101.682877,346.881073a1.860583,1.774674 0 1 1 -3.721161,0a1.860583,1.774674 0 1 1 3.721161,0z"/>
   <path id="svg_37" fill="#ffaaaa" fill-rule="evenodd" stroke-width="1.0000000pt" d="m116.144409,347.866333a1.860583,1.774674 0 1 1 -3.721191,0a1.860583,1.774674 0 1 1 3.721191,0z"/>
  </g>
  <g id="svg_38">
   <path id="svg_39" fill="#ffaaaa" stroke="#ffffff" stroke-width="1.928799" d="m326.129578,231.01593c3.660187,-10.473495 -4.845947,-24.169586 -7.320313,-24.438156c-3.660156,3.491165 -3.660156,3.491165 -7.320313,6.98233c-3.660156,-3.491165 -3.660156,-3.491165 -7.320313,-6.98233c-2.003296,1.404495 -10.980499,13.964661 -7.320313,25.129379c-9.312012,-5.865509 -25.596893,-3.463013 -26.629272,-1.301453c2.349976,4.399139 2.349976,4.399139 4.699921,8.798248c-4.612061,2.241486 -4.612061,2.241486 -9.224121,4.482941c0.781372,2.251282 10.794983,13.931702 22.369049,15.244385c-9.415283,7.817627 -11.237762,21.621735 -9.401489,23.226196c5.112518,-0.772369 5.112518,-0.772369 10.225037,-1.544739c0.809753,4.876495 0.809753,4.876495 1.619507,9.75293c2.486206,-0.013123 16.881165,-7.497925 20.981995,-16.073273c4.1008,12.47525 18.814758,17.104462 20.981995,15.934479c0.809753,-4.876465 0.809753,-4.876465 1.619537,-9.752899c5.112457,0.772308 5.112457,0.772308 10.157837,1.4086c0.68808,-2.395569 0.510071,-17.028931 -7.441193,-25.098328c13.038208,-1.564453 20.972809,-11.009033 20.475952,-13.336609c-4.612061,-2.241455 -4.612061,-2.241455 -9.224152,-4.48291c2.349976,-4.39917 2.349976,-4.39917 4.699951,-8.798279c-2.019501,-1.383301 -17.317322,-5.645569 -26.629303,0.911194"/>
   <path id="svg_40" fill="#ffffff" stroke="#ffaaaa" stroke-width="1.4644" d="m323.691345,233.928223c3.05011,-8.727905 -4.038361,-20.141296 -6.100281,-20.365097c-3.05014,2.909286 -3.05014,2.909286 -6.10025,5.818588c-3.050171,-2.909302 -3.050171,-2.909302 -6.100281,-5.818588c-1.669434,1.17041 -9.150421,11.637192 -6.100311,20.941147c-7.759979,-4.887939 -21.330688,-2.885864 -22.19101,-1.084534c1.958344,3.665924 1.958344,3.665924 3.916626,7.331848c-3.843384,1.86792 -3.843384,1.86792 -7.686798,3.735779c0.651154,1.876099 8.995819,11.609802 18.6409,12.703674c-7.8461,6.514648 -9.364838,18.018066 -7.834564,19.355164c4.260437,-0.643646 4.260437,-0.643646 8.520813,-1.287292c0.674805,4.063782 0.674805,4.063782 1.349609,8.127472c2.071838,-0.010956 14.067627,-6.248322 17.485016,-13.39444c3.417328,10.396057 15.678925,14.253723 17.484955,13.278748c0.674805,-4.063721 0.674805,-4.063721 1.349609,-8.127441c4.260437,0.643616 4.260437,0.643616 8.464905,1.173828c0.573364,-1.996277 0.425079,-14.190735 -6.200928,-20.915222c10.865082,-1.303741 17.477264,-9.174194 17.063232,-11.113831c-3.843414,-1.86792 -3.843414,-1.86792 -7.686798,-3.735809c1.958313,-3.665955 1.958313,-3.665955 3.916595,-7.331879c-1.682861,-1.152771 -14.431061,-4.704651 -22.19104,0.759338"/>
   <path id="svg_41" fill="#ffaaaa" fill-rule="evenodd" d="m332.216492,254.331696l-19.772064,-3.564423l-1.045258,18.624908l-0.991272,-18.565948l-18.239655,5.832916l17.548981,-7.585236l-10.532318,-15.689209l12.142059,14.547241l12.420776,-14.547241l-10.735291,15.593811l19.204041,5.35318z"/>
   <path id="svg_42" fill="#ffaaaa" fill-rule="evenodd" d="m298.054993,246.321655l12.780212,2.303955l0.675629,-12.038727l0.640778,12.000641l11.789673,-3.770264l-11.343262,4.902924l6.807831,10.141144l-7.848297,-9.403046l-8.028534,9.403046l6.939056,-10.079498l-12.413086,-3.460175z"/>
   <path id="svg_43" fill="#ffaaaa" fill-rule="evenodd" stroke="#ffffff" d="m317.60022,248.489746a6.100269,5.818608 0 1 1 -12.200562,0a6.100269,5.818608 0 1 1 12.200562,0z"/>
   <path id="svg_44" fill="#ffaaaa" fill-rule="evenodd" stroke-width="1.0000000pt" d="m302.011292,246.7966a1.860583,1.774674 0 1 1 -3.721191,0a1.860583,1.774674 0 1 1 3.721191,0z"/>
   <path id="svg_45" fill="#ffaaaa" fill-rule="evenodd" stroke-width="1.0000000pt" d="m313.138855,236.697449a1.860583,1.774674 0 1 1 -3.72113,0a1.860583,1.774674 0 1 1 3.72113,0z"/>
   <path id="svg_46" fill="#ffaaaa" fill-rule="evenodd" stroke-width="1.0000000pt" d="m325.53476,244.579712a1.860583,1.774674 0 1 1 -3.721161,0a1.860583,1.774674 0 1 1 3.721161,0z"/>
   <path id="svg_47" fill="#ffaaaa" fill-rule="evenodd" stroke-width="1.0000000pt" d="m306.682861,257.881073a1.860583,1.774674 0 1 1 -3.72113,0a1.860583,1.774674 0 1 1 3.72113,0z"/>
   <path id="svg_48" fill="#ffaaaa" fill-rule="evenodd" stroke-width="1.0000000pt" d="m321.144409,258.866333a1.860583,1.774674 0 1 1 -3.721191,0a1.860583,1.774674 0 1 1 3.721191,0z"/>
  </g>
  <g transform="rotate(-19.5638, 382.5, 192.5)" id="svg_49">
   <path id="svg_50" fill="#ffaaaa" stroke="#ffffff" stroke-width="1.928799" d="m397.129578,175.015915c3.660187,-10.47348 -4.845947,-24.169571 -7.320313,-24.438141c-3.660156,3.491165 -3.660156,3.491165 -7.320313,6.98233c-3.660156,-3.491165 -3.660156,-3.491165 -7.320313,-6.98233c-2.003296,1.404495 -10.980499,13.964661 -7.320313,25.129395c-9.312012,-5.865524 -25.596893,-3.463043 -26.629272,-1.301468c2.349976,4.399139 2.349976,4.399139 4.699921,8.798248c-4.612061,2.24147 -4.612061,2.24147 -9.224121,4.482956c0.781372,2.251282 10.794983,13.931702 22.369049,15.24437c-9.415283,7.817612 -11.237762,21.621735 -9.401489,23.226196c5.112518,-0.772369 5.112518,-0.772369 10.225037,-1.544739c0.809753,4.876495 0.809753,4.876495 1.619507,9.75293c2.486206,-0.013123 16.881165,-7.497925 20.981995,-16.073273c4.1008,12.47525 18.814758,17.104462 20.981995,15.934479c0.809753,-4.876465 0.809753,-4.876465 1.619537,-9.752899c5.112457,0.772308 5.112457,0.772308 10.157837,1.4086c0.68808,-2.395569 0.510071,-17.028946 -7.441193,-25.098328c13.038208,-1.564453 20.972809,-11.009033 20.475952,-13.336594c-4.612061,-2.241486 -4.612061,-2.241486 -9.224152,-4.482941c2.349976,-4.399155 2.349976,-4.399155 4.699951,-8.798279c-2.019501,-1.383286 -17.317322,-5.645569 -26.629303,0.911209"/>
   <path id="svg_51" fill="#ffffff" stroke="#ffaaaa" stroke-width="1.4644" d="m394.691345,177.928223c3.05011,-8.727905 -4.038361,-20.141296 -6.100281,-20.365097c-3.05014,2.909286 -3.05014,2.909286 -6.10025,5.818588c-3.050171,-2.909302 -3.050171,-2.909302 -6.100281,-5.818588c-1.669434,1.17041 -9.150421,11.637192 -6.100311,20.941147c-7.759979,-4.887939 -21.330688,-2.885849 -22.19101,-1.084549c1.958344,3.665939 1.958344,3.665939 3.916626,7.331863c-3.843384,1.867905 -3.843384,1.867905 -7.686798,3.735794c0.651154,1.876083 8.995819,11.609772 18.6409,12.703659c-7.8461,6.514648 -9.364838,18.018066 -7.834564,19.355164c4.260437,-0.643646 4.260437,-0.643646 8.520813,-1.287292c0.674805,4.063782 0.674805,4.063782 1.349609,8.127472c2.071838,-0.010956 14.067627,-6.248322 17.485016,-13.394424c3.417328,10.396042 15.678925,14.253708 17.484955,13.278732c0.674805,-4.063721 0.674805,-4.063721 1.349609,-8.127441c4.260437,0.643616 4.260437,0.643616 8.464905,1.173828c0.573364,-1.996277 0.425079,-14.19075 -6.200928,-20.915237c10.865082,-1.303726 17.477264,-9.174194 17.063232,-11.113815c-3.843414,-1.86792 -3.843414,-1.86792 -7.686798,-3.735809c1.958313,-3.665955 1.958313,-3.665955 3.916595,-7.331879c-1.682861,-1.152771 -14.431061,-4.704636 -22.19104,0.759323"/>
   <path id="svg_52" fill="#ffaaaa" fill-rule="evenodd" d="m403.216492,198.331696l-19.772064,-3.564423l-1.045258,18.624908l-0.991272,-18.565933l-18.239655,5.832901l17.548981,-7.585236l-10.532318,-15.689209l12.142059,14.547241l12.420776,-14.547241l-10.735291,15.593826l19.204041,5.353165z"/>
   <path id="svg_53" fill="#ffaaaa" fill-rule="evenodd" d="m369.054993,190.321655l12.780212,2.303955l0.675629,-12.038727l0.640778,12.000626l11.789673,-3.770264l-11.343262,4.902939l6.807831,10.141129l-7.848297,-9.40303l-8.028534,9.40303l6.939056,-10.079483l-12.413086,-3.460175z"/>
   <path id="svg_54" fill="#ffaaaa" fill-rule="evenodd" stroke="#ffffff" d="m388.60022,192.489761a6.100269,5.818608 0 1 1 -12.200562,0a6.100269,5.818608 0 1 1 12.200562,0z"/>
   <path id="svg_55" fill="#ffaaaa" fill-rule="evenodd" stroke-width="1.0000000pt" d="m373.011292,190.7966a1.860583,1.774674 0 1 1 -3.721191,0a1.860583,1.774674 0 1 1 3.721191,0z"/>
   <path id="svg_56" fill="#ffaaaa" fill-rule="evenodd" stroke-width="1.0000000pt" d="m384.138855,180.697464a1.860583,1.774674 0 1 1 -3.72113,0a1.860583,1.774674 0 1 1 3.72113,0z"/>
   <path id="svg_57" fill="#ffaaaa" fill-rule="evenodd" stroke-width="1.0000000pt" d="m396.53476,188.579712a1.860583,1.774674 0 1 1 -3.721161,0a1.860583,1.774674 0 1 1 3.721161,0z"/>
   <path id="svg_58" fill="#ffaaaa" fill-rule="evenodd" stroke-width="1.0000000pt" d="m377.682861,201.881073a1.860583,1.774674 0 1 1 -3.72113,0a1.860583,1.774674 0 1 1 3.72113,0z"/>
   <path id="svg_59" fill="#ffaaaa" fill-rule="evenodd" stroke-width="1.0000000pt" d="m392.144409,202.866333a1.860583,1.774674 0 1 1 -3.721191,0a1.860583,1.774674 0 1 1 3.721191,0z"/>
  </g>
  <g id="svg_60">
   <path id="svg_61" fill="#ffaaaa" stroke="#ffffff" stroke-width="1.928799" d="m186.129578,378.01593c3.660187,-10.473511 -4.845947,-24.169586 -7.320313,-24.438171c-3.660156,3.49118 -3.660156,3.49118 -7.320313,6.982361c-3.660156,-3.49118 -3.660156,-3.49118 -7.320313,-6.982361c-2.003296,1.40451 -10.980499,13.964661 -7.320313,25.129395c-9.312012,-5.865509 -25.596893,-3.463013 -26.629272,-1.301453c2.349976,4.399139 2.349976,4.399139 4.699921,8.798248c-4.612061,2.241486 -4.612061,2.241486 -9.224121,4.482941c0.781372,2.251282 10.794983,13.931702 22.369049,15.244385c-9.415283,7.817627 -11.237762,21.621735 -9.401489,23.226196c5.112518,-0.772369 5.112518,-0.772369 10.225037,-1.544739c0.809753,4.876495 0.809753,4.876495 1.619507,9.75293c2.486206,-0.013123 16.881165,-7.497925 20.981995,-16.073273c4.1008,12.47525 18.814758,17.104462 20.981995,15.934479c0.809753,-4.876465 0.809753,-4.876465 1.619537,-9.752899c5.112457,0.772308 5.112457,0.772308 10.157837,1.4086c0.68808,-2.395569 0.510071,-17.028931 -7.441193,-25.098328c13.038208,-1.564453 20.972809,-11.009033 20.475952,-13.336609c-4.612061,-2.241455 -4.612061,-2.241455 -9.224152,-4.48291c2.349976,-4.39917 2.349976,-4.39917 4.699951,-8.798279c-2.019501,-1.383301 -17.317322,-5.645569 -26.629303,0.911194"/>
   <path id="svg_62" fill="#ffffff" stroke="#ffaaaa" stroke-width="1.4644" d="m183.691345,380.928223c3.05011,-8.727905 -4.038361,-20.141296 -6.100281,-20.365112c-3.05014,2.909302 -3.05014,2.909302 -6.10025,5.818604c-3.050171,-2.909302 -3.050171,-2.909302 -6.100281,-5.818604c-1.669434,1.17041 -9.150421,11.637207 -6.100311,20.941162c-7.759979,-4.887939 -21.330688,-2.885864 -22.19101,-1.084534c1.958344,3.665924 1.958344,3.665924 3.916626,7.331848c-3.843384,1.86792 -3.843384,1.86792 -7.686798,3.735779c0.651154,1.876099 8.995819,11.609802 18.6409,12.703674c-7.8461,6.514648 -9.364838,18.018066 -7.834564,19.355164c4.260437,-0.643646 4.260437,-0.643646 8.520813,-1.287292c0.674805,4.063782 0.674805,4.063782 1.349609,8.127472c2.071838,-0.010956 14.067627,-6.248322 17.485016,-13.39444c3.417328,10.396057 15.678925,14.253723 17.484955,13.278748c0.674805,-4.063721 0.674805,-4.063721 1.349609,-8.127441c4.260437,0.643616 4.260437,0.643616 8.464905,1.173828c0.573364,-1.996277 0.425079,-14.190735 -6.200928,-20.915222c10.865082,-1.303741 17.477264,-9.174194 17.063232,-11.113831c-3.843414,-1.86792 -3.843414,-1.86792 -7.686798,-3.735809c1.958313,-3.665955 1.958313,-3.665955 3.916595,-7.331879c-1.682861,-1.152771 -14.431061,-4.704651 -22.19104,0.759338"/>
   <path id="svg_63" fill="#ffaaaa" fill-rule="evenodd" d="m192.216492,401.331696l-19.772064,-3.564423l-1.045258,18.624908l-0.991272,-18.565948l-18.239655,5.832916l17.548981,-7.585236l-10.532318,-15.689209l12.142059,14.547241l12.420776,-14.547241l-10.735291,15.593811l19.204041,5.35318z"/>
   <path id="svg_64" fill="#ffaaaa" fill-rule="evenodd" d="m158.054993,393.321655l12.780212,2.303955l0.675629,-12.038727l0.640778,12.000641l11.789673,-3.770264l-11.343262,4.902924l6.807831,10.141144l-7.848297,-9.403046l-8.028534,9.403046l6.939056,-10.079498l-12.413086,-3.460175z"/>
   <path id="svg_65" fill="#ffaaaa" fill-rule="evenodd" stroke="#ffffff" d="m177.60022,395.489746a6.100269,5.818608 0 1 1 -12.200562,0a6.100269,5.818608 0 1 1 12.200562,0z"/>
   <path id="svg_66" fill="#ffaaaa" fill-rule="evenodd" stroke-width="1.0000000pt" d="m162.011292,393.7966a1.860583,1.774674 0 1 1 -3.721191,0a1.860583,1.774674 0 1 1 3.721191,0z"/>
   <path id="svg_67" fill="#ffaaaa" fill-rule="evenodd" stroke-width="1.0000000pt" d="m173.138855,383.697449a1.860583,1.774674 0 1 1 -3.72113,0a1.860583,1.774674 0 1 1 3.72113,0z"/>
   <path id="svg_68" fill="#ffaaaa" fill-rule="evenodd" stroke-width="1.0000000pt" d="m185.53476,391.579712a1.860583,1.774674 0 1 1 -3.721161,0a1.860583,1.774674 0 1 1 3.721161,0z"/>
   <path id="svg_69" fill="#ffaaaa" fill-rule="evenodd" stroke-width="1.0000000pt" d="m166.682861,404.881073a1.860583,1.774674 0 1 1 -3.72113,0a1.860583,1.774674 0 1 1 3.72113,0z"/>
   <path id="svg_70" fill="#ffaaaa" fill-rule="evenodd" stroke-width="1.0000000pt" d="m181.144409,405.866333a1.860583,1.774674 0 1 1 -3.721191,0a1.860583,1.774674 0 1 1 3.721191,0z"/>
  </g>
 </g>
</svg>